<?xml version="1.0" encoding="UTF-8"?>
<!-- Generator: visioncortex VTracer 0.6.3 -->
<svg version="1.1" xmlns="http://www.w3.org/2000/svg" width="1280" height="400">

<path d="M0 0 C7.12 5.85 11.32 12.1 12.81 21.31 C12.91 23.47 12.96 25.62 12.97 27.78 C12.98 29.07 12.99 30.36 13 31.69 C13.01 33.09 13.01 34.49 13.02 35.89 C13.02 36.95 13.02 36.95 13.02 38.04 C13.04 41.81 13.05 45.57 13.05 49.34 C13.06 53.2 13.08 57.07 13.11 60.93 C13.13 63.93 13.13 66.92 13.14 69.91 C13.14 71.34 13.15 72.76 13.16 74.19 C13.26 85.39 12.86 95.27 4.75 103.62 C-2.77 110.2 -11.44 110.73 -21.15 110.13 C-29.49 108.99 -35.06 105.3 -41.06 99.56 C-46.62 91.07 -46.64 81.89 -46.62 72.01 C-46.63 70.64 -46.63 69.28 -46.64 67.91 C-46.65 65.06 -46.64 62.21 -46.63 59.36 C-46.62 55.74 -46.64 52.12 -46.67 48.5 C-46.69 45.68 -46.69 42.86 -46.68 40.04 C-46.68 38.07 -46.7 36.1 -46.72 34.13 C-46.64 23.38 -45 12.39 -37.88 3.89 C-28.05 -5.28 -11.53 -6.11 0 0 Z " fill="#FCFDFF" transform="translate(748.1875,232.6875)"/>
<path d="M0 0 C8.48 8.32 9.98 17.58 10.15 29.03 C10.16 31.35 10.17 33.68 10.17 36.01 C10.17 37.88 10.17 37.88 10.18 39.79 C10.18 42.41 10.19 45.04 10.19 47.67 C10.19 51.66 10.21 55.64 10.22 59.63 C10.23 62.2 10.23 64.76 10.23 67.32 C10.24 68.5 10.24 69.68 10.25 70.89 C10.22 82.67 10.05 93.77 2 103 C-4.06 108.91 -10.86 109.39 -18.95 109.37 C-24.8 109.23 -29.11 108.16 -34 105 C-35.07 104.34 -36.14 103.68 -37.25 103 C-43.45 97.29 -45.29 88.37 -45.65 80.31 C-45.7 77.45 -45.69 74.58 -45.66 71.72 C-45.67 70.17 -45.67 68.63 -45.68 67.08 C-45.69 63.86 -45.68 60.64 -45.65 57.42 C-45.62 53.32 -45.64 49.23 -45.67 45.14 C-45.69 41.95 -45.68 38.76 -45.67 35.58 C-45.67 34.07 -45.67 32.56 -45.68 31.05 C-45.74 20.96 -45.04 11.08 -38.32 2.98 C-28.83 -6.31 -10.86 -7.26 0 0 Z " fill="#FCFDFF" transform="translate(708,53)"/>
<path d="M0 0 C5.82 5.62 8.66 11.41 9.26 19.55 C9.27 20.81 9.27 22.06 9.27 23.35 C9.28 24.05 9.28 24.75 9.29 25.47 C9.3 27.76 9.3 30.05 9.3 32.34 C9.3 33.94 9.31 35.55 9.31 37.15 C9.32 40.51 9.32 43.87 9.32 47.22 C9.31 51.51 9.33 55.79 9.35 60.07 C9.36 63.38 9.37 66.7 9.36 70.01 C9.36 71.59 9.37 73.17 9.38 74.74 C9.48 93.66 9.48 93.66 3.75 101.31 C-3.14 108.05 -9.8 109.3 -19.21 109.32 C-24.99 109.2 -29.18 108.12 -34 105 C-34.65 104.6 -35.29 104.2 -35.96 103.79 C-41.46 99.79 -43.42 94.47 -45 88 C-46.09 81.11 -46.16 74.32 -46.17 67.36 C-46.17 66.15 -46.17 64.94 -46.18 63.7 C-46.18 61.16 -46.19 58.62 -46.19 56.07 C-46.19 52.21 -46.21 48.35 -46.22 44.48 C-46.23 42 -46.23 39.52 -46.23 37.04 C-46.24 35.9 -46.24 34.76 -46.25 33.58 C-46.22 23.02 -45.77 11.61 -38.5 3.28 C-28.67 -6 -11.32 -7.54 0 0 Z " fill="#FCFDFF" transform="translate(936,53)"/>
<path d="M0 0 C2.6 2.04 4.29 4.19 6 7 C6.58 7.87 7.15 8.73 7.75 9.62 C12.08 21.33 11.31 34.27 11.26 46.55 C11.25 49.73 11.26 52.9 11.27 56.08 C11.3 94.45 11.3 94.45 1 105 C-6.88 110.4 -16.64 110.56 -25.89 109.6 C-33.28 108.18 -39.31 104.83 -43.88 98.8 C-47.71 92.63 -47.73 85.06 -47 78 C-45 76 -45 76 -43.04 75.76 C-41.88 75.76 -41.88 75.76 -40.68 75.77 C-39.84 75.77 -38.99 75.77 -38.12 75.78 C-37.23 75.79 -36.35 75.8 -35.44 75.81 C-34.55 75.81 -33.66 75.81 -32.74 75.81 C-26.14 75.86 -26.14 75.86 -25 77 C-24.47 79.83 -24.03 82.68 -23.6 85.53 C-23.4 86.35 -23.2 87.16 -23 88 C-20.27 89.37 -18.02 89.13 -15 89 C-13.74 87.96 -13.74 87.96 -13.89 85.68 C-13.89 84.68 -13.9 83.68 -13.9 82.65 C-13.91 81.57 -13.91 80.49 -13.91 79.38 C-13.92 78.24 -13.93 77.11 -13.94 75.94 C-13.94 74.8 -13.95 73.66 -13.95 72.48 C-13.96 69.65 -13.98 66.83 -14 64 C-14.59 64.32 -15.18 64.65 -15.79 64.98 C-21.29 67.52 -29.84 66.87 -35.62 65.28 C-40.49 63 -43.8 60.05 -45.81 54.95 C-47.96 48.28 -48.51 42.17 -48.44 35.19 C-48.43 34.13 -48.42 33.08 -48.41 31.99 C-48.2 21.6 -46.7 11.91 -39.84 3.65 C-28.68 -6.37 -12.99 -5.91 0 0 Z " fill="#FBFCFE" transform="translate(815,233)"/>
<path d="M0 0 C1.24 0 1.24 0 2.5 0 C3.35 -0 4.19 -0.01 5.07 -0.01 C6.87 -0.02 8.67 -0.02 10.47 -0.01 C13.21 -0.01 15.95 -0.03 18.69 -0.06 C20.44 -0.06 22.19 -0.06 23.93 -0.06 C24.75 -0.07 25.57 -0.08 26.41 -0.09 C31.99 -0.04 36.35 0.84 40.59 4.81 C46.07 12.59 46.33 21.1 46.29 30.37 C46.31 31.31 46.33 32.25 46.34 33.22 C46.35 39.28 45.59 43.81 42.98 49.3 C40.29 51.8 40.29 51.8 37.98 53.3 C38.61 53.97 38.61 53.97 39.26 54.66 C40.08 55.57 40.08 55.57 40.92 56.49 C41.46 57.08 42.01 57.67 42.57 58.28 C45.9 63.05 45.13 69.26 45.11 74.84 C45.11 75.75 45.12 76.67 45.12 77.61 C45.12 79.54 45.12 81.47 45.11 83.41 C45.11 86.36 45.11 89.31 45.12 92.27 C45.12 94.14 45.12 96.02 45.11 97.9 C45.12 98.78 45.12 99.67 45.12 100.58 C45.12 101.81 45.12 101.81 45.11 103.07 C45.11 103.8 45.11 104.52 45.11 105.26 C44.98 107.38 44.56 109.26 43.98 111.3 C40.67 111.33 37.36 111.35 34.04 111.37 C33.1 111.37 32.15 111.38 31.18 111.39 C29.83 111.4 29.83 111.4 28.45 111.4 C27.62 111.41 26.79 111.41 25.93 111.42 C23.98 111.3 23.98 111.3 22.98 110.3 C22.86 108.91 22.81 107.52 22.79 106.12 C22.77 105.23 22.76 104.35 22.74 103.43 C22.73 102.47 22.71 101.5 22.7 100.5 C22.67 99.02 22.67 99.02 22.64 97.51 C22.59 94.34 22.53 91.16 22.48 87.99 C22.41 83.83 22.34 79.67 22.26 75.5 C22.25 74.54 22.24 73.58 22.22 72.59 C22.2 71.69 22.19 70.8 22.17 69.87 C22.16 69.09 22.15 68.3 22.13 67.49 C21.98 65.32 21.58 63.39 20.98 61.3 C19.32 61.26 17.65 61.26 15.98 61.3 C14.37 62.92 14.82 64.68 14.78 66.92 C14.76 67.9 14.74 68.88 14.72 69.89 C14.7 70.95 14.68 72.02 14.66 73.12 C14.64 74.21 14.62 75.29 14.6 76.41 C14.54 79.9 14.48 83.38 14.42 86.87 C14.38 89.22 14.33 91.58 14.29 93.93 C14.18 99.72 14.08 105.51 13.98 111.3 C10.5 111.33 7.02 111.35 3.54 111.37 C2.05 111.38 2.05 111.38 0.53 111.39 C-0.41 111.39 -1.35 111.4 -2.33 111.4 C-3.2 111.41 -4.08 111.41 -4.98 111.42 C-7.02 111.3 -7.02 111.3 -8.02 110.3 C-8.12 108.9 -8.15 107.5 -8.15 106.1 C-8.16 104.74 -8.16 104.74 -8.17 103.35 C-8.17 102.34 -8.16 101.34 -8.16 100.31 C-8.17 99.26 -8.17 98.21 -8.17 97.12 C-8.18 93.63 -8.19 90.14 -8.19 86.65 C-8.19 84.24 -8.19 81.82 -8.2 79.41 C-8.2 74.34 -8.2 69.27 -8.2 64.2 C-8.2 57.68 -8.22 51.17 -8.23 44.66 C-8.25 39.67 -8.25 34.68 -8.25 29.69 C-8.25 27.29 -8.25 24.89 -8.26 22.49 C-8.27 19.13 -8.27 15.78 -8.26 12.43 C-8.27 11.43 -8.27 10.43 -8.28 9.4 C-8.27 8.49 -8.27 7.58 -8.27 6.64 C-8.27 5.84 -8.27 5.05 -8.27 4.23 C-7.65 -0.57 -3.98 0.05 0 0 Z " fill="#FCFDFF" transform="translate(610.0188598632813,49.69645690917969)"/>
<path d="M0 0 C1.09 -0 2.17 -0.01 3.29 -0.01 C5.58 -0.01 7.86 -0.01 10.15 0.01 C13.64 0.03 17.14 0.01 20.63 -0.02 C22.86 -0.01 25.09 -0.01 27.31 0 C28.35 -0.01 29.39 -0.02 30.47 -0.02 C36.28 0.05 40.22 0.3 44.59 4.53 C49.04 10.51 49.17 16.59 49.09 23.82 C49.09 24.88 49.09 25.94 49.09 27.04 C49.09 29.27 49.08 31.51 49.06 33.74 C49.03 37.15 49.04 40.56 49.05 43.98 C49.04 46.15 49.03 48.33 49.02 50.51 C49.03 51.52 49.03 52.54 49.03 53.59 C48.94 60.23 48.06 64.67 43.59 69.84 C40.44 72.5 37.73 72.66 33.77 72.71 C32.79 72.72 31.81 72.73 30.81 72.75 C29.75 72.75 28.69 72.76 27.61 72.77 C26.52 72.78 25.43 72.79 24.31 72.79 C22 72.81 19.69 72.82 17.39 72.83 C13.87 72.84 10.35 72.89 6.83 72.93 C4.59 72.94 2.35 72.95 0.11 72.96 C-0.94 72.97 -1.99 72.99 -3.07 73.01 C-9.43 72.99 -13.24 72.3 -18.41 68.53 C-22.11 64.54 -23.51 61.52 -23.6 56.13 C-23.62 55.24 -23.64 54.35 -23.65 53.43 C-23.7 49.36 -23.74 45.28 -23.76 41.2 C-23.78 39.06 -23.8 36.92 -23.84 34.77 C-23.9 31.67 -23.92 28.57 -23.93 25.46 C-23.96 24.52 -23.98 23.57 -24 22.6 C-23.98 15.16 -22.32 8.46 -16.92 3.04 C-11.84 -0.42 -5.93 -0.05 0 0 Z " fill="#7EBD34" transform="translate(281.41015625,201.46875)"/>
<path d="M0 0 C1.09 -0 2.18 -0 3.3 -0 C5.59 -0 7.88 0.01 10.17 0.03 C13.68 0.06 17.18 0.05 20.68 0.04 C22.91 0.04 25.14 0.05 27.38 0.06 C28.94 0.06 28.94 0.06 30.54 0.05 C40.11 0.18 40.11 0.18 43.55 3.5 C48.61 10.06 49.28 16.05 49.15 24.14 C49.15 25.22 49.15 26.31 49.15 27.43 C49.14 29.7 49.13 31.98 49.1 34.26 C49.05 37.75 49.06 41.24 49.06 44.72 C49.05 46.94 49.04 49.17 49.02 51.39 C49.02 52.95 49.02 52.95 49.02 54.54 C48.91 61.18 48.03 64.71 43.55 69.75 C40.43 72.48 37.73 72.63 33.74 72.67 C32.76 72.69 31.78 72.7 30.77 72.71 C29.71 72.72 28.66 72.73 27.57 72.73 C26.48 72.74 25.39 72.75 24.27 72.76 C21.96 72.77 19.66 72.78 17.35 72.79 C13.83 72.81 10.31 72.85 6.8 72.9 C4.55 72.91 2.31 72.92 0.07 72.92 C-0.98 72.94 -2.03 72.96 -3.11 72.97 C-9.46 72.96 -13.27 72.27 -18.45 68.5 C-22.14 64.51 -23.55 61.49 -23.64 56.09 C-23.65 55.2 -23.67 54.31 -23.69 53.4 C-23.73 49.32 -23.77 45.24 -23.8 41.17 C-23.81 39.02 -23.84 36.88 -23.88 34.74 C-23.93 31.64 -23.95 28.53 -23.97 25.43 C-23.99 24.48 -24.01 23.54 -24.04 22.57 C-24.01 15.13 -22.36 8.43 -16.96 3 C-11.87 -0.47 -5.94 -0.06 0 0 Z " fill="#7EBD34" transform="translate(357.4453125,50.50390625)"/>
<path d="M0 0 C1.04 -0 2.08 -0 3.16 -0 C5.35 -0 7.54 0.01 9.73 0.03 C13.08 0.06 16.43 0.05 19.78 0.04 C21.92 0.04 24.05 0.05 26.19 0.06 C27.19 0.06 28.19 0.06 29.21 0.05 C35.21 0.13 38.99 0.68 43.44 5 C46.83 9.22 48.01 12 48.06 17.35 C48.07 18.33 48.07 19.32 48.08 20.33 C48.09 21.39 48.09 22.46 48.1 23.55 C48.1 24.64 48.11 25.74 48.11 26.87 C48.12 29.18 48.13 31.5 48.13 33.81 C48.14 37.35 48.18 40.89 48.21 44.43 C48.21 46.68 48.22 48.93 48.22 51.18 C48.24 52.23 48.25 53.29 48.26 54.38 C48.24 61.61 47.27 64.82 42.44 70.27 C37.96 73.78 32.66 73.21 27.21 73.16 C25.52 73.17 25.52 73.17 23.8 73.17 C21.42 73.18 19.04 73.17 16.66 73.15 C13.04 73.12 9.42 73.15 5.79 73.18 C3.47 73.18 1.16 73.17 -1.16 73.16 C-2.24 73.17 -3.31 73.18 -4.42 73.19 C-11.09 73.09 -16.18 72.28 -21.11 67.5 C-24.58 61.92 -24.57 56.48 -24.57 50.1 C-24.58 49.11 -24.59 48.13 -24.6 47.11 C-24.61 45.03 -24.61 42.95 -24.61 40.86 C-24.61 37.7 -24.65 34.55 -24.69 31.38 C-24.7 29.35 -24.7 27.32 -24.7 25.29 C-24.72 24.36 -24.73 23.42 -24.75 22.46 C-24.68 15.62 -23.26 10.04 -19.11 4.5 C-13.62 -0.27 -6.92 -0.08 0 0 Z " fill="#7EBD34" transform="translate(358.10546875,276.50390625)"/>
<path d="M0 0 C1.04 -0 2.08 -0.01 3.15 -0.01 C5.34 -0.01 7.52 -0.01 9.71 0.01 C13.05 0.03 16.39 0.01 19.73 -0.02 C21.86 -0.01 23.99 -0.01 26.12 0 C27.62 -0.01 27.62 -0.01 29.14 -0.02 C34.91 0.05 38.38 0.61 42.93 4.53 C46.74 8.75 48.05 11.74 48.09 17.38 C48.1 18.37 48.11 19.35 48.12 20.37 C48.12 21.43 48.13 22.49 48.13 23.59 C48.14 24.68 48.14 25.77 48.15 26.9 C48.16 29.22 48.17 31.53 48.17 33.85 C48.18 37.39 48.21 40.92 48.24 44.46 C48.25 46.71 48.25 48.96 48.26 51.21 C48.27 52.27 48.28 53.33 48.3 54.42 C48.27 61.64 47.31 64.85 42.47 70.3 C37.99 73.81 32.7 73.25 27.25 73.2 C25.56 73.2 25.56 73.2 23.84 73.21 C21.46 73.21 19.08 73.2 16.7 73.18 C13.07 73.16 9.45 73.18 5.82 73.21 C3.51 73.21 1.19 73.21 -1.12 73.2 C-2.2 73.21 -3.28 73.22 -4.39 73.23 C-11.06 73.12 -16.15 72.31 -21.07 67.53 C-24.54 61.96 -24.54 56.51 -24.54 50.14 C-24.55 49.15 -24.55 48.16 -24.56 47.14 C-24.57 45.06 -24.58 42.98 -24.57 40.9 C-24.57 37.74 -24.61 34.58 -24.66 31.42 C-24.66 29.39 -24.66 27.36 -24.66 25.32 C-24.68 24.39 -24.7 23.46 -24.71 22.5 C-24.64 15.66 -23.22 10.08 -19.07 4.53 C-13.6 -0.22 -6.9 -0.06 0 0 Z " fill="#7EBD34" transform="translate(282.0703125,276.46875)"/>
<path d="M0 0 C1.09 -0 2.17 -0.01 3.29 -0.01 C5.58 -0.01 7.86 -0.01 10.15 0.01 C13.64 0.03 17.14 0.01 20.63 -0.02 C22.86 -0.01 25.09 -0.01 27.31 0 C28.35 -0.01 29.39 -0.02 30.47 -0.02 C36.28 0.05 40.22 0.3 44.59 4.53 C49.04 10.51 49.17 16.59 49.09 23.82 C49.09 24.88 49.09 25.94 49.09 27.04 C49.09 29.27 49.08 31.51 49.06 33.74 C49.03 37.15 49.04 40.56 49.05 43.98 C49.04 46.15 49.03 48.33 49.02 50.51 C49.03 51.52 49.03 52.54 49.03 53.59 C48.94 60.23 48.06 64.67 43.59 69.84 C40.44 72.5 37.73 72.66 33.77 72.71 C32.79 72.72 31.81 72.73 30.81 72.75 C29.75 72.75 28.69 72.76 27.61 72.77 C26.52 72.78 25.43 72.79 24.31 72.79 C22 72.81 19.69 72.82 17.39 72.83 C13.87 72.84 10.35 72.89 6.83 72.93 C4.59 72.94 2.35 72.95 0.11 72.96 C-0.94 72.97 -1.99 72.99 -3.07 73.01 C-9.42 72.99 -13.39 72.55 -18.41 68.53 C-23.51 62.87 -24.15 57.44 -24.07 50.04 C-24.08 49.05 -24.08 48.07 -24.09 47.05 C-24.09 44.98 -24.08 42.9 -24.06 40.82 C-24.04 37.67 -24.06 34.52 -24.09 31.37 C-24.09 29.34 -24.08 27.32 -24.07 25.29 C-24.08 24.36 -24.09 23.43 -24.1 22.47 C-23.98 15.12 -22.26 8.4 -16.92 3.04 C-11.84 -0.42 -5.93 -0.05 0 0 Z " fill="#7EBD34" transform="translate(357.41015625,201.46875)"/>
<path d="M0 0 C1 -0 2 -0.01 3.03 -0.01 C5.14 -0.02 7.25 -0.02 9.36 -0.01 C12.58 -0.01 15.8 -0.04 19.03 -0.06 C21.08 -0.06 23.13 -0.06 25.19 -0.06 C26.15 -0.07 27.11 -0.08 28.1 -0.09 C34.11 -0.05 38.67 0.57 43.3 4.8 C46.59 9.02 47.78 11.84 47.84 17.12 C47.86 18.59 47.86 18.59 47.88 20.08 C47.88 21.14 47.89 22.2 47.9 23.29 C47.91 24.37 47.91 25.46 47.92 26.59 C47.94 28.89 47.95 31.2 47.96 33.5 C47.97 37.02 48.02 40.54 48.06 44.06 C48.07 46.3 48.08 48.54 48.09 50.79 C48.1 51.83 48.12 52.88 48.14 53.96 C48.12 60.29 47.57 64.23 43.66 69.3 C39.1 73.6 32.94 72.75 27.04 72.73 C25.91 72.74 24.78 72.74 23.62 72.75 C21.23 72.76 18.84 72.76 16.45 72.75 C12.81 72.74 9.16 72.77 5.52 72.8 C3.19 72.8 0.87 72.8 -1.46 72.8 C-2.54 72.81 -3.63 72.82 -4.75 72.83 C-11.13 72.77 -15.33 72.42 -20.34 68.3 C-24.71 62.63 -24.93 56.66 -24.87 49.74 C-24.87 48.75 -24.88 47.76 -24.88 46.74 C-24.89 44.65 -24.88 42.57 -24.86 40.48 C-24.84 37.31 -24.86 34.14 -24.89 30.96 C-24.88 28.93 -24.88 26.9 -24.87 24.86 C-24.88 23.92 -24.89 22.98 -24.9 22.02 C-24.79 14.7 -23.23 9.12 -17.9 3.93 C-11.92 0.13 -6.93 -0.01 0 0 Z " fill="#7EBD34" transform="translate(358.33984375,125.69921875)"/>
<path d="M0 0 C1.06 -0 2.13 -0 3.23 -0 C5.46 0.01 7.7 0.02 9.94 0.05 C13.36 0.09 16.79 0.09 20.21 0.09 C22.39 0.1 24.57 0.11 26.75 0.12 C27.77 0.13 28.79 0.13 29.84 0.13 C38.64 0.27 38.64 0.27 42.68 3.59 C44.22 5.28 44.22 5.28 45.43 7.03 C45.83 7.61 46.24 8.18 46.66 8.78 C48.53 12.13 48.8 15.37 48.84 19.16 C48.85 20.06 48.86 20.96 48.87 21.88 C48.87 22.84 48.87 23.81 48.88 24.8 C48.88 25.8 48.89 26.8 48.9 27.83 C48.91 29.94 48.91 32.05 48.92 34.16 C48.93 37.38 48.96 40.6 48.99 43.82 C48.99 45.88 49 47.93 49 49.99 C49.02 50.95 49.03 51.9 49.04 52.89 C49.02 59.68 48.18 64.62 43.68 69.97 C40.51 72.54 37.8 72.73 33.87 72.77 C32.9 72.78 31.92 72.8 30.92 72.81 C29.34 72.82 29.34 72.82 27.73 72.83 C26.64 72.84 25.55 72.85 24.43 72.86 C22.13 72.87 19.83 72.88 17.53 72.89 C14.02 72.91 10.51 72.95 7.01 72.99 C4.77 73 2.53 73.01 0.29 73.02 C-0.75 73.04 -1.8 73.05 -2.87 73.07 C-9.11 73.05 -14.3 72.58 -19.32 68.59 C-23.88 62.92 -23.91 57.78 -23.86 50.69 C-23.86 49.65 -23.86 48.62 -23.87 47.55 C-23.87 45.37 -23.86 43.18 -23.85 41 C-23.82 37.67 -23.85 34.34 -23.87 31.02 C-23.87 28.89 -23.86 26.76 -23.86 24.63 C-23.86 23.64 -23.87 22.66 -23.88 21.64 C-23.8 15.54 -23.19 10.5 -19.32 5.59 C-13.62 0.12 -7.58 -0.12 0 0 Z " fill="#7EBD34" transform="translate(433.32421875,50.40625)"/>
<path d="M0 0 C1 -0 2 -0.01 3.03 -0.01 C5.14 -0.02 7.25 -0.02 9.36 -0.01 C12.58 -0.01 15.8 -0.04 19.03 -0.06 C21.08 -0.06 23.13 -0.06 25.19 -0.06 C26.15 -0.07 27.11 -0.08 28.1 -0.09 C34.11 -0.05 38.63 0.6 43.3 4.77 C46.93 9.34 47.77 12.42 47.84 18.14 C47.86 19.58 47.86 19.58 47.88 21.05 C47.88 22.07 47.89 23.1 47.9 24.16 C47.91 25.23 47.91 26.29 47.92 27.39 C47.94 29.65 47.95 31.9 47.96 34.15 C47.97 37.59 48.02 41.03 48.06 44.46 C48.07 46.65 48.08 48.85 48.09 51.04 C48.1 52.06 48.12 53.09 48.14 54.14 C48.12 60.41 47.51 64.27 43.66 69.3 C39.1 73.6 32.94 72.75 27.04 72.73 C25.91 72.74 24.78 72.74 23.62 72.75 C21.23 72.76 18.84 72.76 16.45 72.75 C12.81 72.74 9.16 72.77 5.52 72.8 C3.19 72.8 0.87 72.8 -1.46 72.8 C-2.54 72.81 -3.63 72.82 -4.75 72.83 C-11.13 72.77 -15.33 72.42 -20.34 68.3 C-24.71 62.63 -24.93 56.66 -24.87 49.74 C-24.87 48.75 -24.88 47.76 -24.88 46.74 C-24.89 44.65 -24.88 42.57 -24.86 40.48 C-24.84 37.31 -24.86 34.14 -24.89 30.96 C-24.88 28.93 -24.88 26.9 -24.87 24.86 C-24.88 23.92 -24.89 22.98 -24.9 22.02 C-24.79 14.7 -23.23 9.12 -17.9 3.93 C-11.92 0.13 -6.93 -0.01 0 0 Z " fill="#7EBD34" transform="translate(282.33984375,125.69921875)"/>
<path d="M0 0 C1.51 -0.01 1.51 -0.01 3.04 -0.03 C4.13 -0.03 5.22 -0.04 6.35 -0.04 C7.46 -0.05 8.58 -0.05 9.73 -0.06 C12.1 -0.07 14.47 -0.08 16.84 -0.08 C20.46 -0.09 24.08 -0.12 27.7 -0.15 C30 -0.16 32.3 -0.16 34.6 -0.17 C35.68 -0.18 36.76 -0.19 37.88 -0.2 C41.83 -0.19 45.3 -0.11 49.08 1.06 C54.7 6.72 56.73 13.43 56.84 21.25 C56.83 22.21 56.81 23.16 56.8 24.14 C56.8 25.15 56.8 26.16 56.81 27.2 C56.81 29.32 56.79 31.44 56.77 33.56 C56.73 36.79 56.75 40.01 56.77 43.24 C56.76 45.31 56.75 47.38 56.74 49.45 C56.74 50.88 56.74 50.88 56.75 52.35 C56.65 58.32 55.82 63.28 52.17 68.16 C49.09 71.06 46.96 71.55 42.78 71.6 C41.7 71.62 40.62 71.64 39.51 71.65 C37.77 71.66 37.77 71.66 35.99 71.67 C34.8 71.68 33.6 71.69 32.36 71.7 C29.83 71.71 27.29 71.72 24.75 71.72 C20.88 71.72 17.01 71.78 13.14 71.83 C10.68 71.84 8.21 71.85 5.74 71.85 C4.59 71.87 3.44 71.9 2.25 71.92 C-4.07 71.86 -7.95 71.35 -12.54 66.84 C-15.18 63.4 -16.08 60.75 -16.12 56.43 C-16.13 55.49 -16.15 54.56 -16.16 53.59 C-16.16 52.59 -16.16 51.59 -16.17 50.55 C-16.17 49.51 -16.18 48.47 -16.19 47.4 C-16.2 45.2 -16.2 42.99 -16.2 40.79 C-16.2 37.44 -16.24 34.08 -16.28 30.73 C-16.28 28.59 -16.29 26.44 -16.29 24.3 C-16.3 23.31 -16.32 22.31 -16.33 21.28 C-16.29 15.08 -15.43 10.32 -11.83 5.16 C-7.84 1.45 -5.38 0.04 0 0 Z " fill="#7EBD34" transform="translate(425.829345703125,200.8388671875)"/>
<path d="M0 0 C0.73 -0.01 1.46 -0.02 2.21 -0.02 C3.76 -0.04 5.32 -0.05 6.87 -0.06 C9.21 -0.07 11.56 -0.12 13.9 -0.16 C22.88 -0.26 30.77 -0.16 37.77 6.11 C46.17 19.19 46.18 35.84 43.62 50.74 C42.15 56.83 39.84 61.51 34.68 65.24 C28.68 67.24 28.68 67.24 12.68 68.24 C12.68 82.43 12.68 96.62 12.68 111.24 C5.75 111.24 -1.18 111.24 -8.32 111.24 C-9.32 110.24 -9.32 110.24 -9.44 108.41 C-9.44 107.61 -9.44 106.81 -9.44 105.98 C-9.44 105.06 -9.44 104.14 -9.44 103.2 C-9.44 102.18 -9.43 101.17 -9.43 100.12 C-9.43 99.06 -9.43 97.99 -9.43 96.9 C-9.43 93.36 -9.42 89.83 -9.41 86.3 C-9.41 83.85 -9.41 81.41 -9.41 78.97 C-9.41 72.53 -9.4 66.08 -9.39 59.64 C-9.37 53.07 -9.37 46.5 -9.37 39.94 C-9.35 27.04 -9.34 14.14 -9.32 1.24 C-6.34 -0.25 -3.27 0.03 0 0 Z " fill="#FCFDFF" transform="translate(550.31640625,49.76171875)"/>
<path d="M0 0 C0.88 0.01 1.77 0.01 2.68 0.02 C3.58 0.02 4.49 0.02 5.42 0.02 C7.33 0.03 9.25 0.03 11.16 0.05 C14.1 0.06 17.04 0.07 19.98 0.07 C21.84 0.07 23.7 0.08 25.55 0.08 C26.88 0.09 26.88 0.09 28.23 0.09 C34.43 0.14 34.43 0.14 35.55 1.25 C35.63 2.74 35.65 4.23 35.65 5.72 C35.64 6.53 35.64 7.34 35.64 8.18 C35.63 9.21 35.62 10.25 35.61 11.31 C35.59 14.59 35.57 17.87 35.55 21.25 C25.15 21.75 25.15 21.75 14.55 22.25 C14.88 28.85 15.21 35.45 15.55 42.25 C21.38 42.5 21.38 42.5 27.22 42.73 C27.94 42.77 28.67 42.8 29.42 42.84 C30.16 42.87 30.9 42.9 31.67 42.93 C33.55 43.25 33.55 43.25 35.55 45.25 C35.78 47.22 35.78 47.22 35.74 49.6 C35.74 50.37 35.73 51.14 35.73 51.93 C35.71 52.9 35.69 53.87 35.67 54.88 C35.63 57.97 35.59 61.06 35.55 64.25 C25.15 64.75 25.15 64.75 14.55 65.25 C15.04 76.64 15.04 76.64 15.55 88.25 C22.41 88.54 22.41 88.54 29.28 88.82 C30.13 88.86 30.98 88.9 31.86 88.94 C32.73 88.97 33.61 89.01 34.51 89.05 C36.55 89.25 36.55 89.25 37.55 90.25 C37.63 91.81 37.65 93.38 37.65 94.94 C37.64 95.89 37.64 96.83 37.64 97.8 C37.62 99.29 37.62 99.29 37.61 100.81 C37.61 101.81 37.6 102.81 37.6 103.84 C37.58 106.31 37.57 108.78 37.55 111.25 C31.16 111.28 24.77 111.3 18.38 111.31 C16.2 111.31 14.03 111.32 11.85 111.33 C8.73 111.34 5.61 111.35 2.49 111.35 C1.02 111.36 1.02 111.36 -0.48 111.37 C-1.38 111.37 -2.28 111.37 -3.21 111.37 C-4.4 111.37 -4.4 111.37 -5.62 111.37 C-7.45 111.25 -7.45 111.25 -8.45 110.25 C-8.55 108.85 -8.58 107.45 -8.59 106.05 C-8.59 104.68 -8.59 104.68 -8.6 103.3 C-8.6 102.29 -8.6 101.29 -8.6 100.26 C-8.6 99.21 -8.6 98.16 -8.61 97.07 C-8.62 93.58 -8.62 90.09 -8.62 86.6 C-8.62 84.18 -8.63 81.77 -8.63 79.35 C-8.64 74.28 -8.64 69.21 -8.64 64.14 C-8.64 57.63 -8.65 51.12 -8.67 44.61 C-8.68 39.62 -8.68 34.63 -8.68 29.64 C-8.68 27.24 -8.69 24.84 -8.69 22.43 C-8.7 19.08 -8.7 15.73 -8.69 12.38 C-8.7 11.38 -8.71 10.38 -8.71 9.34 C-8.71 8.43 -8.7 7.52 -8.7 6.59 C-8.7 5.79 -8.7 5 -8.7 4.18 C-8.06 -0.8 -4.07 0.02 0 0 Z " fill="#FCFDFF" transform="translate(795.4520416259766,49.74775695800781)"/>
<path d="M0 0 C6.25 5.51 12.27 13.34 13.21 21.89 C13.78 34.17 13.38 43.65 4.95 53.36 C-2.46 60.56 -9.85 63.34 -20.12 63.44 C-30.83 63.25 -37.8 59.87 -46 53 C-53.01 45.65 -55.97 37.09 -56 27 C-55.23 17.38 -50.03 7.97 -42.98 1.5 C-29.32 -8.84 -14.25 -9.38 0 0 Z " fill="red" transform="translate(314,56)"/>
<path d="M0 0 C0.78 0 1.56 0.01 2.36 0.01 C3.21 0.01 4.05 0.02 4.93 0.02 C5.81 0.03 6.7 0.04 7.61 0.06 C8.5 0.06 9.38 0.06 10.3 0.06 C16.9 0.1 16.9 0.1 18.04 1.24 C18.16 4.07 18.2 6.87 18.21 9.69 C18.21 11.02 18.21 11.02 18.22 12.38 C18.24 15.32 18.24 18.27 18.25 21.22 C18.25 23.26 18.26 25.31 18.27 27.35 C18.28 31.65 18.28 35.94 18.28 40.24 C18.29 45.74 18.31 51.24 18.34 56.73 C18.36 60.96 18.37 65.19 18.37 69.42 C18.37 71.44 18.38 73.47 18.39 75.5 C18.41 78.34 18.41 81.18 18.4 84.02 C18.41 85.27 18.41 85.27 18.43 86.54 C18.37 94.94 15.47 100.35 9.81 106.51 C3.52 112.67 -3.08 112.54 -11.48 112.45 C-19.28 111.98 -25.32 108.62 -30.96 103.24 C-35.33 97.42 -36.08 92.26 -36.09 85.14 C-36.09 84.46 -36.09 83.79 -36.09 83.09 C-36.09 81.66 -36.09 80.23 -36.09 78.81 C-36.08 76.62 -36.09 74.43 -36.09 72.24 C-36.09 70.85 -36.09 69.47 -36.09 68.08 C-36.09 66.82 -36.09 65.55 -36.08 64.25 C-35.96 61.24 -35.96 61.24 -34.96 59.24 C-31.64 59.21 -28.33 59.2 -25.02 59.18 C-24.07 59.17 -23.13 59.16 -22.15 59.16 C-20.8 59.15 -20.8 59.15 -19.43 59.15 C-18.6 59.14 -17.76 59.13 -16.9 59.13 C-14.96 59.24 -14.96 59.24 -13.96 60.24 C-13.8 62.46 -13.7 64.68 -13.64 66.9 C-13.62 67.57 -13.6 68.23 -13.58 68.92 C-13.51 71.05 -13.45 73.18 -13.39 75.31 C-13.35 76.75 -13.31 78.19 -13.26 79.63 C-13.15 83.17 -13.05 86.7 -12.96 90.24 C-10.63 90.62 -8.29 90.96 -5.96 91.24 C-3.91 89.2 -4.79 84.9 -4.78 82.08 C-4.78 81.23 -4.77 80.37 -4.76 79.49 C-4.75 77.63 -4.74 75.76 -4.73 73.9 C-4.71 70.96 -4.69 68.01 -4.66 65.07 C-4.59 56.69 -4.53 48.31 -4.48 39.94 C-4.45 34.82 -4.41 29.7 -4.36 24.59 C-4.34 22.63 -4.33 20.68 -4.32 18.72 C-4.31 15.99 -4.29 13.26 -4.26 10.53 C-4.26 9.72 -4.26 8.9 -4.26 8.07 C-4.16 0.52 -4.16 0.52 0 0 Z " fill="#FCFDFF" transform="translate(759.955322265625,49.757080078125)"/>
<path d="M0 0 C0.81 0 1.62 0 2.45 0 C3.83 -0 3.83 -0 5.23 -0.01 C6.23 0 7.22 0.01 8.24 0.02 C9.77 0.02 9.77 0.02 11.32 0.02 C13.47 0.02 15.62 0.03 17.77 0.04 C21.07 0.06 24.37 0.06 27.68 0.06 C29.76 0.07 31.85 0.07 33.93 0.08 C35.42 0.08 35.42 0.08 36.94 0.08 C37.86 0.09 38.77 0.1 39.72 0.1 C40.93 0.11 40.93 0.11 42.17 0.11 C44.02 0.25 44.02 0.25 45.02 1.25 C45.11 2.74 45.13 4.23 45.12 5.72 C45.11 6.62 45.11 7.52 45.11 8.44 C45.1 9.86 45.1 9.86 45.08 11.31 C45.08 12.26 45.07 13.21 45.07 14.19 C45.06 16.54 45.04 18.89 45.02 21.25 C44.24 21.31 43.45 21.37 42.65 21.43 C41.13 21.56 41.13 21.56 39.58 21.68 C38.57 21.77 37.56 21.85 36.52 21.93 C34.08 21.98 34.08 21.98 33.02 23.25 C32.89 25.99 32.83 28.7 32.81 31.44 C32.8 32.3 32.79 33.16 32.78 34.04 C32.75 36.89 32.73 39.74 32.7 42.59 C32.68 44.57 32.66 46.54 32.64 48.51 C32.59 53.71 32.54 58.91 32.49 64.11 C32.44 69.41 32.38 74.71 32.33 80.01 C32.22 90.43 32.12 100.84 32.02 111.25 C28.54 111.28 25.06 111.29 21.58 111.31 C20.09 111.32 20.09 111.32 18.57 111.34 C17.63 111.34 16.68 111.34 15.71 111.34 C14.84 111.35 13.96 111.36 13.06 111.36 C11.02 111.25 11.02 111.25 10.02 110.25 C9.89 107.51 9.83 104.8 9.81 102.06 C9.8 101.2 9.79 100.34 9.78 99.45 C9.75 96.6 9.73 93.75 9.7 90.9 C9.68 88.93 9.66 86.96 9.64 84.98 C9.59 79.79 9.54 74.59 9.49 69.39 C9.44 64.08 9.38 58.78 9.33 53.48 C9.22 43.07 9.12 32.66 9.02 22.25 C5.06 21.92 1.1 21.59 -2.98 21.25 C-3.2 18.12 -3.41 15 -3.61 11.87 C-3.67 10.98 -3.73 10.09 -3.8 9.18 C-3.85 8.33 -3.9 7.48 -3.96 6.6 C-4.01 5.81 -4.06 5.03 -4.12 4.22 C-3.92 1.34 -2.84 0.35 0 0 Z " fill="#FCFDFF" transform="translate(839.9801177978516,49.75276184082031)"/>
<path d="M0 0 C1 1 1 1 1.12 2.84 C1.12 4.06 1.12 4.06 1.12 5.3 C1.12 6.22 1.12 7.15 1.12 8.11 C1.12 9.64 1.12 9.64 1.11 11.21 C1.11 12.28 1.11 13.36 1.11 14.46 C1.11 18.03 1.11 21.59 1.1 25.16 C1.1 27.62 1.09 30.09 1.09 32.55 C1.09 39.06 1.08 45.56 1.07 52.06 C1.06 58.69 1.05 65.32 1.05 71.95 C1.04 84.96 1.02 97.98 1 111 C-2.65 111.03 -6.29 111.05 -9.94 111.06 C-10.98 111.07 -12.02 111.08 -13.09 111.09 C-14.58 111.09 -14.58 111.09 -16.09 111.1 C-17.46 111.11 -17.46 111.11 -18.87 111.11 C-21 111 -21 111 -22 110 C-22.13 107.48 -22.19 104.98 -22.21 102.45 C-22.22 101.66 -22.23 100.87 -22.24 100.06 C-22.27 97.43 -22.29 94.81 -22.32 92.18 C-22.34 90.37 -22.36 88.55 -22.38 86.74 C-22.43 81.95 -22.48 77.17 -22.53 72.38 C-22.58 67.5 -22.64 62.62 -22.69 57.74 C-22.8 48.16 -22.9 38.58 -23 29 C-23.53 29.22 -24.06 29.43 -24.61 29.66 C-25.32 29.93 -26.02 30.21 -26.75 30.5 C-27.45 30.78 -28.14 31.06 -28.86 31.34 C-31 32 -31 32 -35 32 C-36.48 29.05 -36.29 26.35 -36.38 23.06 C-36.42 21.82 -36.47 20.57 -36.52 19.29 C-36 16 -36 16 -33.75 14.2 C-32.39 13.6 -32.39 13.6 -31 13 C-30.27 12.64 -29.54 12.27 -28.79 11.89 C-28.07 11.54 -27.36 11.18 -26.62 10.81 C-23 8.88 -21.18 7.05 -18.88 3.69 C-14.26 -2.16 -6.74 -0.82 0 0 Z " fill="#FBFCFE" transform="translate(694,230)"/>
<path d="M0 0 C2.29 3.33 2.25 6.32 2.26 10.28 C2.27 11.55 2.27 12.82 2.28 14.13 C2.27 15.52 2.27 16.9 2.27 18.29 C2.27 19.71 2.27 21.13 2.27 22.55 C2.27 25.53 2.27 28.5 2.26 31.48 C2.25 35.3 2.26 39.11 2.27 42.93 C2.28 45.86 2.27 48.8 2.27 51.73 C2.27 53.14 2.27 54.55 2.27 55.95 C2.28 57.92 2.27 59.88 2.26 61.85 C2.26 63.53 2.26 63.53 2.25 65.24 C2 68 2 68 0 71 C-3.37 70.69 -3.37 70.69 -7 70 C-9.32 66.52 -9.25 65.16 -9.26 61.05 C-9.27 59.82 -9.27 58.6 -9.28 57.34 C-9.27 56 -9.27 54.66 -9.27 53.32 C-9.27 51.95 -9.27 50.57 -9.27 49.2 C-9.27 46.32 -9.27 43.44 -9.26 40.56 C-9.25 36.87 -9.26 33.19 -9.27 29.51 C-9.28 26.67 -9.27 23.83 -9.27 20.99 C-9.27 19.63 -9.27 18.28 -9.27 16.92 C-9.28 15.02 -9.27 13.11 -9.26 11.21 C-9.26 10.13 -9.26 9.05 -9.25 7.93 C-8.99 4.89 -8.39 2.72 -7 0 C-4.26 -1.37 -2.88 -0.94 0 0 Z " fill="#384759" transform="translate(735,251)"/>
<path d="M0 0 C2.38 3.56 2.26 5.12 2.27 9.35 C2.28 10.66 2.29 11.97 2.3 13.33 C2.3 14.76 2.3 16.19 2.3 17.62 C2.3 19.09 2.31 20.56 2.31 22.03 C2.32 25.11 2.32 28.18 2.32 31.26 C2.31 35.2 2.33 39.15 2.35 43.09 C2.36 46.12 2.37 49.16 2.36 52.19 C2.36 53.64 2.37 55.1 2.38 56.55 C2.39 58.58 2.38 60.62 2.37 62.65 C2.37 63.81 2.37 64.96 2.37 66.15 C2 69 2 69 0.6 70.91 C-1 72 -1 72 -3 71.81 C-5 71 -5 71 -8 69 C-9.66 63.2 -9.16 56.83 -9.17 50.85 C-9.17 49.67 -9.17 48.5 -9.18 47.29 C-9.18 44.81 -9.19 42.34 -9.19 39.86 C-9.19 36.08 -9.21 32.3 -9.22 28.52 C-9.23 26.11 -9.23 23.7 -9.23 21.29 C-9.24 20.16 -9.24 19.03 -9.25 17.87 C-9.21 4.28 -9.21 4.28 -5.06 0 C-3 -1 -3 -1 0 0 Z " fill="#384759" transform="translate(921,70)"/>
<path d="M0 0 C3.88 1.75 3.88 1.75 5 4 C5.1 6.08 5.14 8.16 5.15 10.24 C5.15 11.55 5.16 12.86 5.16 14.21 C5.17 15.65 5.17 17.09 5.17 18.53 C5.17 20 5.17 21.47 5.18 22.94 C5.18 26.02 5.19 29.1 5.19 32.18 C5.19 36.14 5.2 40.09 5.22 44.04 C5.23 47.08 5.23 50.11 5.23 53.15 C5.23 54.61 5.23 56.06 5.24 57.52 C5.25 59.56 5.25 61.6 5.24 63.63 C5.24 64.79 5.25 65.95 5.25 67.15 C5 70 5 70 3 73 C0.43 72.65 -1.5 72.35 -3.64 70.84 C-5.61 68.18 -5.4 66.15 -5.42 62.86 C-5.44 61.6 -5.45 60.33 -5.47 59.03 C-5.47 57.65 -5.47 56.27 -5.47 54.88 C-5.48 53.46 -5.48 52.05 -5.49 50.63 C-5.51 47.65 -5.51 44.68 -5.5 41.7 C-5.5 37.9 -5.53 34.09 -5.57 30.29 C-5.59 27.36 -5.59 24.43 -5.59 21.5 C-5.59 20.09 -5.6 18.69 -5.62 17.29 C-5.64 15.32 -5.63 13.36 -5.62 11.4 C-5.62 10.28 -5.62 9.16 -5.62 8.01 C-4.81 4.08 -3 2.56 0 0 Z " fill="#384759" transform="translate(690,69)"/>
<path d="M0 0 C3.05 4.57 2.33 9.12 2.31 14.5 C2.33 15.56 2.34 16.62 2.36 17.71 C2.36 18.72 2.36 19.74 2.36 20.78 C2.37 21.71 2.37 22.64 2.37 23.6 C2 26 2 26 0.63 27.83 C-1 29 -1 29 -3.5 28.94 C-6.69 27.74 -7.38 27.01 -9 24 C-9.42 20.85 -9.37 17.74 -9.31 14.56 C-9.32 13.72 -9.32 12.87 -9.32 12 C-9.28 7.63 -9.2 3.91 -7 0 C-4.28 -1.36 -2.87 -0.86 0 0 Z " fill="#384759" transform="translate(800,251)"/>
<path d="M0 0 C2.56 1 2.56 1 4.38 3.75 C6.35 9.19 6.3 15.32 5.56 21 C4.4 23.26 3.36 25.2 1.56 27 C-0.94 27.12 -0.94 27.12 -3.44 27 C-4.44 26 -4.44 26 -4.55 23.59 C-4.55 22.55 -4.54 21.51 -4.54 20.43 C-4.53 19.31 -4.53 18.18 -4.53 17.03 C-4.52 15.84 -4.51 14.66 -4.5 13.44 C-4.5 12.25 -4.49 11.06 -4.49 9.84 C-4.47 6.89 -4.46 3.95 -4.44 1 C-2.44 0 -2.44 0 0 0 Z " fill="#384759" transform="translate(567.4375,70)"/>
<path d="M0 0 C2.56 0.31 2.56 0.31 4.2 1.33 C6.34 4.44 5.96 7.74 5.88 11.38 C5.88 12.11 5.88 12.84 5.88 13.6 C5.83 19.05 5.83 19.05 3.56 21.31 C0 21.5 0 21.5 -3.44 21.31 C-5.59 19.16 -4.62 14.36 -4.62 11.38 C-4.64 10.54 -4.65 9.7 -4.66 8.84 C-4.66 8.04 -4.67 7.24 -4.67 6.41 C-4.67 5.67 -4.68 4.94 -4.68 4.18 C-4.28 1.08 -2.97 0.38 0 0 Z " fill="#384759" transform="translate(628.4375,69.6875)"/>
</svg>